<svg xmlns="http://www.w3.org/2000/svg" viewBox="0 0 43.69 55.6">
    <defs>
        <style>.cls-1{fill:#c51f30;}.cls-2{fill:#fff;}.exclamation-mark{fill:#231f20;}</style>
    </defs>
    <title>Asset 6</title>
    <g id="Layer_2" data-name="Layer 2">
        <g id="Layer_1-2" data-name="Layer 1">
            <rect class="cls-1" width="31.37" height="55.6" rx="3.6"/>
            <polygon class="cls-2" points="28.07 17.43 28.07 21.31 22.75 21.31 22.75 24.8 19.07 24.8 19.07 21.31 15.84 21.31 15.84 24.8 12.16 24.8 12.16 21.31 9.14 21.31 9.14 27.07 26.71 27.07 26.71 31 5.25 31 5.25 21.31 3.31 21.31 3.31 17.43 28.07 17.43"/>
            <path class="cls-2" d="M21,3.89H10.34a5.64,5.64,0,0,0,0,11.27H21A5.64,5.64,0,0,0,21,3.89Zm-.09,7.49H10.44a1.84,1.84,0,1,1,0-3.67H20.91a1.84,1.84,0,1,1,0,3.67Z"/>
            <polygon class="exclamation-mark cls-3" points="39.08 48.36 35.51 46.83 40.12 36.2 43.69 37.74 39.08 48.36"/>
            <path class="cls-2" d="M23.92,35.37H19.61L16.05,49.23V35.37H12.74v6.85H8V35.37H4.72V51.71H8V45.55h4.7v6.16h6l.68-2.85H24l.66,2.85H28ZM20.2,45.54l1.29-5.42H22l1.23,5.42Z"/>
            <rect class="exclamation-mark cls-3" x="35.09" y="48.97" width="2.47" height="3.89" transform="translate(-21.78 74.06) rotate(-76.21)"/>
        </g>
    </g>
</svg>