<svg xmlns="http://www.w3.org/2000/svg" viewBox="0 0 37.61 48.69"><defs><style>.cls-1{fill:#231f20;}</style></defs><title>Asset 5</title><g id="Layer_2" data-name="Layer 2"><g id="Layer_1-2" data-name="Layer 1"><polygon class="cls-1" points="24.77 13.54 24.77 17.42 19.44 17.42 19.44 20.91 15.77 20.91 15.77 17.42 12.53 17.42 12.53 20.91 8.86 20.91 8.86 17.42 5.83 17.42 5.83 23.18 23.4 23.18 23.4 27.11 1.94 27.11 1.94 17.42 0 17.42 0 13.54 24.77 13.54"/><path class="cls-1" d="M17.69,0H7A5.64,5.64,0,1,0,7,11.27H17.69A5.64,5.64,0,1,0,17.69,0ZM17.6,7.49H7.13a1.84,1.84,0,1,1,0-3.67H17.6a1.84,1.84,0,1,1,0,3.67Z"/><polygon class="cls-1" points="32.99 44.48 29.42 42.94 34.03 32.32 37.61 33.85 32.99 44.48"/><path class="cls-1" d="M20.61,31.48h-4.3L12.74,45.34V31.48H9.43v6.85H4.73V31.48H1.42V47.82H4.73V41.66h4.7v6.16h6L16.11,45h4.53l.66,2.85h3.34ZM16.89,41.66l1.29-5.43h.48l1.23,5.43Z"/><rect class="cls-1" x="29.01" y="45.08" width="2.47" height="3.89" transform="translate(-22.64 65.19) rotate(-76.21)"/></g></g></svg>