<?xml version="1.0" standalone="no"?>
<!DOCTYPE svg PUBLIC "-//W3C//DTD SVG 20010904//EN"
 "http://www.w3.org/TR/2001/REC-SVG-20010904/DTD/svg10.dtd">
<svg version="1.0" xmlns="http://www.w3.org/2000/svg"
 width="86.000000pt" height="86.000000pt" viewBox="0 0 86.000000 86.000000"
 preserveAspectRatio="xMidYMid meet">
<metadata>
Created by potrace 1.11, written by Peter Selinger 2001-2013
</metadata>
<g transform="translate(0.000000,86.000000) scale(0.100000,-0.100000)"
fill="#000000" stroke="none">
<path d="M51 846 c-8 -9 -10 -130 -9 -427 l3 -414 379 -3 c297 -2 381 1 388
10 13 22 10 822 -4 836 -19 19 -741 17 -757 -2z m593 -107 c80 -63 73 -199
-13 -244 -43 -22 -359 -22 -402 0 -45 24 -69 71 -69 134 0 49 3 57 39 92 l39
39 189 0 c178 0 192 -1 217 -21z m96 -359 l0 -50 -65 0 -65 0 0 -45 0 -45 -50
0 -50 0 0 45 c0 45 0 45 -35 45 -35 0 -35 0 -35 -45 l0 -45 -50 0 -50 0 0 45
c0 45 0 45 -35 45 l-35 0 0 -65 0 -65 215 0 215 0 0 -55 0 -55 -265 0 -265 0
0 120 0 120 -25 0 c-23 0 -25 3 -25 50 l0 50 310 0 310 0 0 -50z"/>
<path d="M270 641 c-13 -25 -13 -27 6 -45 12 -13 41 -16 153 -16 123 0 140 2
155 19 14 15 15 24 6 40 -10 20 -19 21 -160 21 -137 0 -150 -2 -160 -19z"/>
</g>
</svg>
